<svg width="94" height="94" viewBox="0 0 94 94" fill="none" xmlns="http://www.w3.org/2000/svg">
<g clip-path="url(#clip0_23_2429)">
<path fill-rule="evenodd" clip-rule="evenodd" d="M46.5072 32.5644C47.3356 32.5644 48.0072 33.236 48.0072 34.0644V36.7333C49.1404 36.7551 50.2421 37.1165 51.1688 37.772C52.126 38.4489 52.8494 39.4062 53.2395 40.5117C53.5152 41.2929 53.1054 42.1497 52.3242 42.4253C51.543 42.701 50.6862 42.2912 50.4105 41.5099C50.227 40.99 49.8867 40.5397 49.4365 40.2213C48.9863 39.9029 48.4484 39.732 47.897 39.7322H44.6636C44.1147 39.7294 43.5843 39.9301 43.1749 40.2956C42.7655 40.6612 42.5061 41.1656 42.447 41.7112C42.3879 42.2569 42.5333 42.8051 42.8549 43.2498C43.1766 43.6946 43.6518 44.0042 44.1885 44.1189L44.1948 44.1203L49.1065 45.1919C50.472 45.4909 51.6789 46.2839 52.4952 47.4186C53.3116 48.5533 53.6799 49.9496 53.5293 51.3393C53.3787 52.729 52.7198 54.014 51.6794 54.9475C50.6674 55.8554 49.3639 56.3684 48.0072 56.3954V59.0644C48.0072 59.8928 47.3356 60.5644 46.5072 60.5644C45.6787 60.5644 45.0072 59.8928 45.0072 59.0644V56.3955C42.5869 56.3492 40.5403 54.7881 39.7749 52.6211C39.499 51.8399 39.9086 50.983 40.6898 50.7072C41.4709 50.4313 42.3278 50.8408 42.6037 51.622C42.9695 52.6577 43.9577 53.3965 45.1179 53.3965H47.8929C48.5508 53.3968 49.1862 53.1539 49.676 52.7145C50.1657 52.2751 50.4758 51.6702 50.5467 51.0161C50.6176 50.362 50.4443 49.7047 50.06 49.1706C49.676 48.6368 49.1083 48.2636 48.466 48.1228C48.4659 48.1227 48.4661 48.1228 48.466 48.1228C48.4657 48.1227 48.4652 48.1226 48.4649 48.1225L43.5616 47.0527C43.5604 47.0524 43.5592 47.0522 43.558 47.0519C42.2967 46.7815 41.1802 46.0533 40.4241 45.008C39.6674 43.9617 39.3254 42.672 39.4645 41.3882C39.6035 40.1044 40.2136 38.9178 41.1769 38.0578C42.1391 37.1987 43.3853 36.7265 44.6751 36.7322H45.0072V34.0644C45.0072 33.236 45.6787 32.5644 46.5072 32.5644ZM27.6357 61.3358C27.6357 60.5074 28.3073 59.8358 29.1357 59.8358H38.0643C38.8927 59.8358 39.5643 60.5074 39.5643 61.3358C39.5643 62.1642 38.8927 62.8358 38.0643 62.8358H30.6357V70.2644C30.6357 71.0928 29.9642 71.7644 29.1357 71.7644C28.3073 71.7644 27.6357 71.0928 27.6357 70.2644V61.3358Z" fill="#547C0E"/>
<path fill-rule="evenodd" clip-rule="evenodd" d="M51.7286 25.855C47.0338 24.808 42.1241 25.3494 37.7703 27.3945C33.4165 29.4395 29.8649 32.8723 27.673 37.1542C25.4812 41.436 24.7731 46.3244 25.66 51.0521C25.8127 51.8663 25.2765 52.6502 24.4623 52.8029C23.6481 52.9557 22.8642 52.4194 22.7114 51.6052C21.702 46.2243 22.5079 40.6605 25.0026 35.7872C27.4973 30.9138 31.5395 27.0067 36.4948 24.6791C41.4502 22.3515 47.0382 21.7352 52.3816 22.9269C57.7251 24.1186 62.5217 27.0509 66.0185 31.2635C66.5476 31.9009 66.4598 32.8466 65.8223 33.3757C65.1849 33.9048 64.2392 33.817 63.7101 33.1796C60.6378 29.4784 56.4235 26.9021 51.7286 25.855ZM69.5377 41.3115C70.352 41.1588 71.1358 41.695 71.2886 42.5093C72.298 47.8902 71.4921 53.4539 68.9974 58.3273C66.5027 63.2007 62.4605 67.1078 57.5052 69.4354C52.5498 71.7629 46.9619 72.3792 41.6184 71.1875C36.2749 69.9958 31.4783 67.0636 27.9815 62.851C27.4524 62.2136 27.5402 61.2679 28.1777 60.7388C28.8151 60.2097 29.7608 60.2975 30.2899 60.9349C33.3622 64.6361 37.5765 67.2124 42.2714 68.2595C46.9662 69.3065 51.8759 68.765 56.2297 66.72C60.5836 64.6749 64.1351 61.2421 66.327 56.9603C68.5188 52.6785 69.2269 47.7901 68.34 43.0624C68.1873 42.2481 68.7235 41.4643 69.5377 41.3115Z" fill="#547C0E"/>
<path fill-rule="evenodd" clip-rule="evenodd" d="M64.8643 22.3501C65.6927 22.3501 66.3643 23.0217 66.3643 23.8501V32.7787C66.3643 33.6071 65.6927 34.2787 64.8643 34.2787H55.9357C55.1073 34.2787 54.4357 33.6071 54.4357 32.7787C54.4357 31.9502 55.1073 31.2787 55.9357 31.2787H63.3643V23.8501C63.3643 23.0217 64.0359 22.3501 64.8643 22.3501Z" fill="#547C0E"/>
</g>
<path d="M93.5 46.5572C93.5 72.2385 72.6812 93.0572 47 93.0572C21.3188 93.0572 0.5 72.2385 0.5 46.5572C0.5 20.876 21.3188 0.0572357 47 0.0572357C72.6812 0.0572357 93.5 20.876 93.5 46.5572Z" fill="#4ECB71" fill-opacity="0.51"/>
<defs>
<clipPath id="clip0_23_2429">
<rect width="50" height="50" fill="white" transform="translate(22 22.0572)"/>
</clipPath>
</defs>
</svg>
