<svg width="94" height="94" viewBox="0 0 94 94" fill="none" xmlns="http://www.w3.org/2000/svg">
<path d="M47 58.3072C45.743 58.3075 44.532 57.8343 43.6082 56.9818C42.6844 56.1294 42.1156 54.9602 42.015 53.7072C38.6805 52.5269 35.8701 50.2065 34.0801 47.1556C32.29 44.1048 31.6353 40.5196 32.2316 37.0329C32.8278 33.5463 34.6367 30.3824 37.3389 28.0997C40.041 25.817 43.4627 24.5624 47 24.5572C50.7622 24.5567 54.3873 25.97 57.1564 28.5168C59.9255 31.0636 61.6365 34.5581 61.95 38.3072C61.9604 38.4699 61.937 38.6329 61.881 38.7859C61.8251 38.939 61.7379 39.0787 61.625 39.1963C61.5122 39.3138 61.3761 39.4066 61.2255 39.4688C61.0748 39.5309 60.9129 39.561 60.75 39.5572C60.4151 39.5488 60.0954 39.4163 59.8528 39.1852C59.6102 38.9542 59.4622 38.6413 59.4375 38.3072C59.2148 36.0968 58.4071 33.9857 57.0975 32.1912C55.7878 30.3966 54.0235 28.9836 51.9863 28.0975C49.9491 27.2113 47.7125 26.8841 45.5068 27.1496C43.3012 27.4151 41.2061 28.2635 39.4373 29.6077C37.6685 30.9519 36.2899 32.7432 35.4434 34.7972C34.5969 36.8512 34.3131 39.0937 34.6213 41.2939C34.9294 43.494 35.8184 45.5722 37.1966 47.3147C38.5748 49.0571 40.3925 50.4007 42.4625 51.2072C42.8392 50.3934 43.4278 49.6958 44.1667 49.1876C44.9056 48.6794 45.7676 48.3792 46.6623 48.3187C47.5571 48.2581 48.4517 48.4393 49.2523 48.8432C50.053 49.2472 50.7303 49.859 51.2132 50.6147C51.6962 51.3704 51.967 52.242 51.9973 53.1383C52.0276 54.0346 51.8162 54.9225 51.3854 55.7091C50.9546 56.4956 50.3202 57.1519 49.5487 57.609C48.7771 58.0661 47.8968 58.3073 47 58.3072ZM34.5225 52.0572H34.75C35.725 53.0097 36.8075 53.8497 37.98 54.5572H34.5225C33.12 54.5572 32 55.6747 32 57.0572C32 60.3297 33.555 62.7672 36.1825 64.4397C38.8575 66.1472 42.6625 67.0572 47 67.0572C51.3375 67.0572 55.1425 66.1472 57.8175 64.4397C60.4425 62.7647 62 60.3322 62 57.0572C62 56.3942 61.7366 55.7583 61.2678 55.2895C60.7989 54.8206 60.163 54.5572 59.5 54.5572H54.3975C54.5374 53.7298 54.5374 52.8847 54.3975 52.0572H59.5C60.8261 52.0572 62.0979 52.584 63.0355 53.5217C63.9732 54.4594 64.5 55.7312 64.5 57.0572C64.5 61.2847 62.4175 64.4722 59.1625 66.5497C55.9575 68.5922 51.6375 69.5572 47 69.5572C42.3625 69.5572 38.0425 68.5922 34.8375 66.5497C31.5825 64.4747 29.5 61.2822 29.5 57.0572C29.5 54.2747 31.7575 52.0572 34.5225 52.0572ZM57 39.5572C57.0005 41.2488 56.572 42.9129 55.7543 44.3938C54.9367 45.8747 53.7568 47.124 52.325 48.0247C51.6576 47.3518 50.8687 46.8114 50 46.4322C51.5792 45.743 52.8729 44.5311 53.6636 43.0001C54.4544 41.4692 54.6938 39.7128 54.3418 38.026C53.9898 36.3393 53.0677 34.8253 51.7306 33.7385C50.3936 32.6517 48.7231 32.0584 47 32.0584C45.2769 32.0584 43.6064 32.6517 42.2694 33.7385C40.9323 34.8253 40.0102 36.3393 39.6582 38.026C39.3062 39.7128 39.5456 41.4692 40.3364 43.0001C41.1271 44.5311 42.4208 45.743 44 46.4322C43.125 46.8147 42.3375 47.3572 41.675 48.0247C39.7761 46.8305 38.3338 45.0325 37.58 42.9197C37.1955 41.8404 36.9993 40.703 37 39.5572C37 36.9051 38.0536 34.3615 39.9289 32.4862C41.8043 30.6108 44.3478 29.5572 47 29.5572C49.6522 29.5572 52.1957 30.6108 54.0711 32.4862C55.9464 34.3615 57 36.9051 57 39.5572Z" fill="#547C0E"/>
<path d="M93.5 46.5572C93.5 72.2385 72.6812 93.0572 47 93.0572C21.3188 93.0572 0.5 72.2385 0.5 46.5572C0.5 20.876 21.3188 0.0572357 47 0.0572357C72.6812 0.0572357 93.5 20.876 93.5 46.5572Z" fill="#4ECB71" fill-opacity="0.51"/>
</svg>
