<svg width="94" height="94" viewBox="0 0 94 94" fill="none" xmlns="http://www.w3.org/2000/svg">
<path d="M35.1146 19.7872C35.005 21.399 34.5942 23.0341 34.9915 24.636C35.0499 24.8724 35.289 25.0558 35.5335 25.0486C36.9646 25.0055 38.3957 25.1188 39.8259 25.0747C40.207 25.063 40.4426 24.7259 40.3671 24.3636C40.0803 22.9883 39.8682 21.577 40.1172 20.1792C40.1747 19.86 40.0336 19.5984 39.7252 19.4879C38.473 19.0384 37.0114 18.8829 35.7313 19.3036C35.0454 19.5283 35.3403 20.6142 36.0297 20.3868C37.1354 20.0236 38.349 20.1837 39.4268 20.5711C39.2955 20.341 39.1652 20.1099 39.034 19.8798C38.7481 21.488 38.953 23.0764 39.2839 24.6612C39.4645 24.4239 39.6443 24.1875 39.8259 23.9502C38.3948 23.9942 36.9637 23.8809 35.5335 23.9241C35.7142 24.0616 35.894 24.1991 36.0747 24.3367C35.7079 22.8571 36.1358 21.2776 36.2383 19.7863C36.2877 19.0636 35.1641 19.0681 35.1146 19.7872Z" fill="#547C0E"/>
<path d="M35.0634 23.9574C32.3028 26.8645 32.4817 31.2764 31.8048 34.9943C30.7854 40.5947 30.7819 46.4098 32.0808 51.9769C34.5537 62.5878 44.9049 69.2443 55.1418 70.3365C59.4621 70.7977 65.5316 69.799 68.3237 66.0621C70.6852 62.9015 70.42 59.526 66.9375 57.2598C64.2336 55.4997 61.268 54.4049 58.3339 53.1005C54.6286 51.4537 51.9138 48.712 49.6845 45.377C47.8003 42.5588 46.2631 39.4225 44.7386 36.403C42.9821 32.9259 39.5518 28.1517 39.7046 24.2055C39.7325 23.48 38.6088 23.4827 38.581 24.2055C38.4272 28.1805 41.3514 31.9731 43.0081 35.4132C45.1107 39.7793 47.3589 44.2164 50.2454 48.1241C52.4999 51.1741 55.5994 53.1086 59.0126 54.6251C61.1125 55.5582 63.2268 56.387 65.2422 57.4954C72.0722 61.252 66.7758 66.9961 61.9647 68.6357C51.1902 72.3088 39.1796 64.489 34.4504 55.1842C32.0368 50.437 32.0098 44.4681 32.2965 39.2687C32.5177 35.2496 33.0274 27.7346 35.8608 24.7529C36.357 24.227 35.5641 23.4315 35.0634 23.9574Z" fill="#547C0E"/>
<path d="M70.1 62.9437C74.4409 54.8777 72.6457 47.0705 66.7083 40.4922C63.1566 36.5567 58.6539 33.45 54.1971 30.6399C49.9595 27.9665 45.0226 24.6891 39.976 23.9708C39.2677 23.8701 38.9621 24.9525 39.6776 25.054C43.8091 25.6419 47.5612 28.0726 51.1389 30.1177C55.3081 32.498 59.2589 35.2416 62.9005 38.3707C70.2465 44.683 74.0157 53.2992 69.13 62.3765C68.7857 63.0148 69.7557 63.5811 70.1 62.9437Z" fill="#547C0E"/>
<path d="M69.3296 62.8494C68.9232 70.8696 57.8494 73.561 51.4256 73.5655C42.4571 73.5718 32.9842 70.9999 27.4315 63.5137C22.7265 57.17 23.185 46.3083 24.9631 39.0162C25.7209 35.9086 30.4106 23.7596 34.7883 25.1862C35.4796 25.4118 35.7726 24.3259 35.0868 24.103C29.8928 22.4094 25.9941 33.1345 24.6538 36.4722C21.3728 44.6488 21.7368 56.5686 26.4607 64.0809C32.0529 72.9722 44.2639 74.8815 53.8546 74.6613C60.3745 74.512 70.0765 70.3095 70.4541 62.8494C70.49 62.1248 69.3664 62.1284 69.3296 62.8494Z" fill="#547C0E"/>
<path d="M68.402 63.6224C57.1438 64.827 41.8099 61.0048 37.4933 49.2234C37.247 48.5483 36.1602 48.8396 36.4101 49.5219C40.9065 61.7949 56.5775 66.01 68.402 64.7461C69.1148 64.6697 69.122 63.5451 68.402 63.6224Z" fill="#547C0E"/>
<path d="M37.3351 24.2414C35.9265 33.824 39.3352 45.2017 45.0856 52.8551C47.7267 56.3699 51.0365 59.1503 55.0853 60.8493C57.3991 61.821 60.0204 62.1428 62.4672 62.6147C64.6723 63.0408 66.6571 63.9335 68.9143 64.1213C69.6371 64.1816 69.6308 63.057 68.9143 62.9977C65.2359 62.6912 61.2636 61.3293 57.6517 60.4744C53.22 59.4272 49.8535 56.6081 46.8862 53.2938C43.6968 49.7314 41.5969 45.3985 40.2764 40.8428C38.8246 35.8367 37.6623 29.6871 38.4192 24.539C38.5225 23.8315 37.4402 23.5268 37.3351 24.2414Z" fill="#547C0E"/>
<path d="M69.9003 62.4691C69.8365 58.1588 70.1637 54.2943 68.3425 50.2905C66.6282 46.5222 63.1907 43.3957 60.2396 40.6207C56.9189 37.4961 53.405 34.4271 49.5981 31.9048C47.2896 30.3748 44.9335 29.1442 42.8354 27.2933C41.5787 26.1858 40.6313 24.9561 39.2371 23.9951C38.6384 23.5834 38.0775 24.557 38.6698 24.966C41.5329 26.9391 43.622 29.5496 46.6361 31.414C50.3954 33.7395 53.7835 36.4021 57.114 39.3056C60.3339 42.1121 63.428 45.0884 65.9729 48.5322C69.1084 52.7742 68.7021 57.5197 68.7758 62.4691C68.7875 63.1937 69.9111 63.1946 69.9003 62.4691Z" fill="#547C0E"/>
<path d="M69.2666 58.3862C64.5679 49.1452 56.722 43.0002 49.0973 36.1575C48.5589 35.6757 47.7625 36.4677 48.3018 36.9531C55.8105 43.6906 63.6645 49.8446 68.2948 58.9534C68.6247 59.5997 69.5947 59.0307 69.2666 58.3862Z" fill="#547C0E"/>
<path d="M68.8315 64.9367C66.2102 70.1891 57.3181 71.2408 52.1951 71.088C45.1385 70.8777 36.7372 66.6994 32.559 61.0245C29.286 56.5802 27.9942 48.5546 27.9448 43.1593C27.8872 36.7562 30.4393 30.1572 34.0826 24.983C34.5006 24.3888 33.5262 23.8288 33.1118 24.4158C29.0019 30.2543 26.7681 37.2884 26.8337 44.4331C26.8921 50.9799 29.0801 58.9426 33.4345 63.8894C38.1404 69.2371 46.9265 72.0552 53.7943 72.2611C59.0017 72.4166 67.2539 70.6098 69.8023 65.5048C70.1242 64.8576 69.1551 64.2885 68.8315 64.9367Z" fill="#547C0E"/>
<path d="M93.5 46.5572C93.5 72.2385 72.6812 93.0572 47 93.0572C21.3188 93.0572 0.5 72.2385 0.5 46.5572C0.5 20.876 21.3188 0.0572357 47 0.0572357C72.6812 0.0572357 93.5 20.876 93.5 46.5572Z" fill="#4ECB71" fill-opacity="0.51"/>
</svg>
