<svg width="94" height="94" viewBox="0 0 94 94" fill="none" xmlns="http://www.w3.org/2000/svg">
<path d="M24.0833 48.0989V58.5156C24.0833 59.0681 24.3028 59.598 24.6935 59.9887C25.0842 60.3794 25.6141 60.5989 26.1666 60.5989H28.25C28.25 62.2565 28.9085 63.8462 30.0806 65.0183C31.2527 66.1904 32.8424 66.8489 34.5 66.8489C36.1576 66.8489 37.7473 66.1904 38.9194 65.0183C40.0915 63.8462 40.75 62.2565 40.75 60.5989H53.25C53.25 62.2565 53.9085 63.8462 55.0806 65.0183C56.2527 66.1904 57.8424 66.8489 59.5 66.8489C61.1576 66.8489 62.7473 66.1904 63.9194 65.0183C65.0915 63.8462 65.75 62.2565 65.75 60.5989H67.8333C68.3858 60.5989 68.9158 60.3794 69.3065 59.9887C69.6972 59.598 69.9166 59.0681 69.9166 58.5156V33.5156C69.9166 31.858 69.2582 30.2683 68.0861 29.0962C66.914 27.9241 65.3242 27.2656 63.6666 27.2656H44.9166C43.259 27.2656 41.6693 27.9241 40.4972 29.0962C39.3251 30.2683 38.6666 31.858 38.6666 33.5156V37.6822H34.5C33.5297 37.6822 32.5727 37.9081 31.7049 38.3421C30.837 38.776 30.0821 39.406 29.5 40.1822L24.5 46.8489C24.439 46.9395 24.39 47.0375 24.3541 47.1406L24.2291 47.3697C24.1372 47.6021 24.0878 47.8491 24.0833 48.0989ZM57.4166 60.5989C57.4166 60.1869 57.5388 59.7841 57.7677 59.4415C57.9967 59.0989 58.322 58.8318 58.7027 58.6742C59.0834 58.5165 59.5023 58.4752 59.9064 58.5556C60.3105 58.636 60.6818 58.8344 60.9731 59.1258C61.2645 59.4171 61.4629 59.7883 61.5433 60.1925C61.6237 60.5966 61.5824 61.0155 61.4247 61.3962C61.267 61.7768 61 62.1022 60.6574 62.3311C60.3148 62.5601 59.912 62.6822 59.5 62.6822C58.9474 62.6822 58.4175 62.4627 58.0268 62.072C57.6361 61.6813 57.4166 61.1514 57.4166 60.5989ZM42.8333 33.5156C42.8333 32.963 43.0528 32.4331 43.4435 32.0424C43.8342 31.6517 44.3641 31.4322 44.9166 31.4322H63.6666C64.2192 31.4322 64.7491 31.6517 65.1398 32.0424C65.5305 32.4331 65.75 32.963 65.75 33.5156V56.4322H64.125C63.5392 55.7877 62.8252 55.2728 62.0287 54.9204C61.2322 54.5681 60.3709 54.386 59.5 54.386C58.629 54.386 57.7677 54.5681 56.9713 54.9204C56.1748 55.2728 55.4608 55.7877 54.875 56.4322H42.8333V33.5156ZM38.6666 46.0156H30.3333L32.8333 42.6822C33.0274 42.4235 33.279 42.2135 33.5683 42.0688C33.8576 41.9242 34.1766 41.8489 34.5 41.8489H38.6666V46.0156ZM32.4166 60.5989C32.4166 60.1869 32.5388 59.7841 32.7678 59.4415C32.9967 59.0989 33.322 58.8318 33.7027 58.6742C34.0834 58.5165 34.5023 58.4752 34.9064 58.5556C35.3105 58.636 35.6818 58.8344 35.9731 59.1258C36.2645 59.4171 36.4629 59.7883 36.5433 60.1925C36.6237 60.5966 36.5824 61.0155 36.4247 61.3962C36.267 61.7768 36 62.1022 35.6574 62.3311C35.3148 62.5601 34.912 62.6822 34.5 62.6822C33.9474 62.6822 33.4175 62.4627 33.0268 62.072C32.6361 61.6813 32.4166 61.1514 32.4166 60.5989ZM28.25 50.1822H38.6666V55.9739C37.4371 54.8751 35.8232 54.3066 34.1764 54.3925C32.5297 54.4783 30.9836 55.2115 29.875 56.4322H28.25V50.1822Z" fill="#547C0E"/>
<path d="M93.5 46.5572C93.5 72.2385 72.6812 93.0572 47 93.0572C21.3188 93.0572 0.5 72.2385 0.5 46.5572C0.5 20.876 21.3188 0.0572357 47 0.0572357C72.6812 0.0572357 93.5 20.876 93.5 46.5572Z" fill="#4ECB71" fill-opacity="0.51"/>
</svg>
