<svg width="41" height="40" viewBox="0 0 41 40" fill="none" xmlns="http://www.w3.org/2000/svg">
<path d="M18.75 0.254126L3.75 4.78214C1.8 5.38587 0.5 6.87508 0.5 8.56554V18.0442C0.5 28.207 9.025 37.6857 20.5 40C31.975 37.6857 40.5 28.207 40.5 18.0442V8.56554C40.4982 7.74659 40.1861 6.94757 39.6054 6.27515C39.0247 5.60272 38.203 5.08889 37.25 4.80226L22.25 0.27425C21.125 -0.0879908 19.875 -0.0879907 18.75 0.254126ZM16.075 25.5506L10.775 21.2842C10.5435 21.0979 10.3599 20.8767 10.2347 20.6333C10.1094 20.3898 10.0449 20.1289 10.0449 19.8654C10.0449 19.602 10.1094 19.341 10.2347 19.0976C10.3599 18.8542 10.5435 18.633 10.775 18.4467C11.0065 18.2604 11.2812 18.1126 11.5836 18.0117C11.8861 17.9109 12.2102 17.859 12.5375 17.859C12.8648 17.859 13.1889 17.9109 13.4914 18.0117C13.7938 18.1126 14.0685 18.2604 14.3 18.4467L17.825 21.2842L26.675 14.1602C26.9065 13.9738 27.1812 13.826 27.4836 13.7252C27.7861 13.6244 28.1102 13.5725 28.4375 13.5725C28.7648 13.5725 29.0889 13.6244 29.3914 13.7252C29.6938 13.826 29.9685 13.9738 30.2 14.1602C30.4315 14.3465 30.6151 14.5677 30.7403 14.8111C30.8656 15.0545 30.93 15.3154 30.93 15.5789C30.93 15.8424 30.8656 16.1033 30.7403 16.3468C30.6151 16.5902 30.4315 16.8114 30.2 16.9977L19.6 25.5305C18.65 26.3355 17.05 26.3355 16.075 25.5506Z" fill="#4ECB71"/>
</svg>
